<svg width="14" height="14" viewBox="0 0 14 14" fill="none" xmlns="http://www.w3.org/2000/svg">
<path d="M7 0C3.1314 0 0 3.13078 0 7C0 10.8686 3.13078 14 7 14C8.35919 14 9.6911 13.6009 10.822 12.8647C11.1609 12.6441 11.2348 12.1791 10.9787 11.8663L10.6915 11.5153C10.4749 11.2508 10.0937 11.186 9.80593 11.3706C8.97355 11.9044 7.99677 12.1935 7 12.1935C4.13627 12.1935 1.80645 9.86373 1.80645 7C1.80645 4.13627 4.13627 1.80645 7 1.80645C9.8265 1.80645 12.1935 3.43279 12.1935 6.32258C12.1935 7.41735 11.5982 8.57336 10.5517 8.68488C10.062 8.67207 10.0744 8.32198 10.1713 7.83743L10.8327 4.419C10.9136 4.00101 10.5934 3.6129 10.1676 3.6129H8.89802C8.80427 3.6129 8.71381 3.64741 8.64388 3.70984C8.57396 3.77228 8.52946 3.85827 8.51889 3.95142L8.5186 3.95401C8.10377 3.44874 7.37693 3.33939 6.82587 3.33939C4.72079 3.33939 2.93548 5.096 2.93548 7.61448C2.93548 9.45771 3.97377 10.6027 5.64516 10.6027C6.40681 10.6027 7.26445 10.1614 7.76184 9.52076C8.03061 10.4834 8.90818 10.4833 9.75769 10.4833C12.8317 10.4833 14 8.46204 14 6.32258C14 2.47408 10.8958 0 7 0ZM6.38806 8.59278C5.76007 8.59278 5.36996 8.15181 5.36996 7.44199C5.36996 6.17202 6.23872 5.38915 7.02484 5.38915C7.65405 5.38915 8.02971 5.81934 8.02971 6.53992C8.02971 7.8118 7.07356 8.59278 6.38806 8.59278Z" fill="#8A8A8F" fill-opacity="0.8"/>
</svg>
