<svg width="14" height="15" viewBox="0 0 14 15" fill="none" xmlns="http://www.w3.org/2000/svg">
<path d="M0.375 5.625H13.625C13.8312 5.625 14 5.7832 14 5.97656V13.5938C14 14.3701 13.3281 15 12.5 15H1.5C0.671875 15 0 14.3701 0 13.5938V5.97656C0 5.7832 0.16875 5.625 0.375 5.625ZM14 4.33594V3.28125C14 2.50488 13.3281 1.875 12.5 1.875H11V0.351562C11 0.158203 10.8312 0 10.625 0H9.375C9.16875 0 9 0.158203 9 0.351562V1.875H5V0.351562C5 0.158203 4.83125 0 4.625 0H3.375C3.16875 0 3 0.158203 3 0.351562V1.875H1.5C0.671875 1.875 0 2.50488 0 3.28125V4.33594C0 4.5293 0.16875 4.6875 0.375 4.6875H13.625C13.8312 4.6875 14 4.5293 14 4.33594Z" fill="#8A8A8F"/>
</svg>
