<svg width="53" height="53" viewBox="0 0 53 53" fill="none" xmlns="http://www.w3.org/2000/svg">
<path d="M43.0625 4.96875V48.0312C43.0625 50.7754 40.8379 53 38.0938 53H14.9062C12.1621 53 9.9375 50.7754 9.9375 48.0312V4.96875C9.9375 2.22455 12.1621 0 14.9062 0H38.0938C40.8379 0 43.0625 2.22455 43.0625 4.96875ZM53 10.9727V12.2148C53 12.3796 52.9346 12.5375 52.8181 12.654C52.7016 12.7705 52.5436 12.8359 52.3789 12.8359H50.5156V13.457C50.5156 13.6218 50.4502 13.7797 50.3337 13.8962C50.2172 14.0127 50.0593 14.0781 49.8945 14.0781H45.5469V9.10938H49.8945C50.0593 9.10938 50.2172 9.17481 50.3337 9.29129C50.4502 9.40777 50.5156 9.56574 50.5156 9.73047V10.3516H52.3789C52.5436 10.3516 52.7016 10.417 52.8181 10.5335C52.9346 10.65 53 10.8079 53 10.9727ZM53 20.9102V22.1523C53 22.3171 52.9346 22.475 52.8181 22.5915C52.7016 22.708 52.5436 22.7734 52.3789 22.7734H50.5156V23.3945C50.5156 23.5593 50.4502 23.7172 50.3337 23.8337C50.2172 23.9502 50.0593 24.0156 49.8945 24.0156H45.5469V19.0469H49.8945C50.0593 19.0469 50.2172 19.1123 50.3337 19.2288C50.4502 19.3453 50.5156 19.5032 50.5156 19.668V20.2891H52.3789C52.5436 20.2891 52.7016 20.3545 52.8181 20.471C52.9346 20.5875 53 20.7454 53 20.9102ZM53 30.8477V32.0898C53 32.2546 52.9346 32.4125 52.8181 32.529C52.7016 32.6455 52.5436 32.7109 52.3789 32.7109H50.5156V33.332C50.5156 33.4968 50.4502 33.6547 50.3337 33.7712C50.2172 33.8877 50.0593 33.9531 49.8945 33.9531H45.5469V28.9844H49.8945C50.0593 28.9844 50.2172 29.0498 50.3337 29.1663C50.4502 29.2828 50.5156 29.4407 50.5156 29.6055V30.2266H52.3789C52.5436 30.2266 52.7016 30.292 52.8181 30.4085C52.9346 30.525 53 30.6829 53 30.8477ZM53 40.7852V42.0273C53 42.1921 52.9346 42.35 52.8181 42.4665C52.7016 42.583 52.5436 42.6484 52.3789 42.6484H50.5156V43.2695C50.5156 43.4343 50.4502 43.5922 50.3337 43.7087C50.2172 43.8252 50.0593 43.8906 49.8945 43.8906H45.5469V38.9219H49.8945C50.0593 38.9219 50.2172 38.9873 50.3337 39.1038C50.4502 39.2203 50.5156 39.3782 50.5156 39.543V40.1641H52.3789C52.5436 40.1641 52.7016 40.2295 52.8181 40.346C52.9346 40.4625 53 40.6204 53 40.7852ZM3.10547 38.9219H7.45312V43.8906H3.10547C2.94074 43.8906 2.78277 43.8252 2.66629 43.7087C2.54981 43.5922 2.48438 43.4343 2.48438 43.2695V42.6484H0.621094C0.456369 42.6484 0.298392 42.583 0.181914 42.4665C0.0654365 42.35 0 42.1921 0 42.0273L0 40.7852C0 40.6204 0.0654365 40.4625 0.181914 40.346C0.298392 40.2295 0.456369 40.1641 0.621094 40.1641H2.48438V39.543C2.48438 39.3782 2.54981 39.2203 2.66629 39.1038C2.78277 38.9873 2.94074 38.9219 3.10547 38.9219ZM3.10547 28.9844H7.45312V33.9531H3.10547C2.94074 33.9531 2.78277 33.8877 2.66629 33.7712C2.54981 33.6547 2.48438 33.4968 2.48438 33.332V32.7109H0.621094C0.456369 32.7109 0.298392 32.6455 0.181914 32.529C0.0654365 32.4125 0 32.2546 0 32.0898L0 30.8477C0 30.6829 0.0654365 30.525 0.181914 30.4085C0.298392 30.292 0.456369 30.2266 0.621094 30.2266H2.48438V29.6055C2.48438 29.4407 2.54981 29.2828 2.66629 29.1663C2.78277 29.0498 2.94074 28.9844 3.10547 28.9844ZM3.10547 19.0469H7.45312V24.0156H3.10547C2.94074 24.0156 2.78277 23.9502 2.66629 23.8337C2.54981 23.7172 2.48438 23.5593 2.48438 23.3945V22.7734H0.621094C0.456369 22.7734 0.298392 22.708 0.181914 22.5915C0.0654365 22.475 0 22.3171 0 22.1523L0 20.9102C0 20.7454 0.0654365 20.5875 0.181914 20.471C0.298392 20.3545 0.456369 20.2891 0.621094 20.2891H2.48438V19.668C2.48438 19.5032 2.54981 19.3453 2.66629 19.2288C2.78277 19.1123 2.94074 19.0469 3.10547 19.0469ZM3.10547 9.10938H7.45312V14.0781H3.10547C2.94074 14.0781 2.78277 14.0127 2.66629 13.8962C2.54981 13.7797 2.48438 13.6218 2.48438 13.457V12.8359H0.621094C0.456369 12.8359 0.298392 12.7705 0.181914 12.654C0.0654365 12.5375 0 12.3796 0 12.2148L0 10.9727C0 10.8079 0.0654365 10.65 0.181914 10.5335C0.298392 10.417 0.456369 10.3516 0.621094 10.3516H2.48438V9.73047C2.48438 9.56574 2.54981 9.40777 2.66629 9.29129C2.78277 9.17481 2.94074 9.10938 3.10547 9.10938Z" fill="url(#paint0_angular_16_40)"/>
<defs>
<radialGradient id="paint0_angular_16_40" cx="0" cy="0" r="1" gradientUnits="userSpaceOnUse" gradientTransform="translate(26.5 26.5) rotate(90) scale(26.5)">
<stop offset="0.307292" stop-color="#676EFF"/>
<stop offset="0.973958" stop-color="#A2A5E1"/>
</radialGradient>
</defs>
</svg>
