<svg width="59" height="39" viewBox="0 0 59 39" fill="none" xmlns="http://www.w3.org/2000/svg">
<path d="M58.6436 18.0172C53.0888 7.27086 42.0918 0 29.5 0C16.9082 0 5.90815 7.27594 0.356403 18.0182C0.122084 18.4778 0 18.9855 0 19.5005C0 20.0155 0.122084 20.5232 0.356403 20.9828C5.91122 31.7291 16.9082 39 29.5 39C42.0918 39 53.0919 31.7241 58.6436 20.9818C58.8779 20.5222 59 20.0145 59 19.4995C59 18.9845 58.8779 18.4768 58.6436 18.0172ZM29.5 34.125C26.5827 34.125 23.731 33.2673 21.3053 31.6602C18.8797 30.0532 16.9891 27.7691 15.8728 25.0967C14.7564 22.4244 14.4643 19.4838 15.0334 16.6468C15.6025 13.8098 17.0073 11.2039 19.0702 9.15856C21.133 7.11322 23.7612 5.72032 26.6224 5.15602C29.4836 4.59171 32.4494 4.88133 35.1446 5.98826C37.8398 7.09519 40.1434 8.96972 41.7642 11.3748C43.385 13.7799 44.25 16.6074 44.25 19.5C44.251 21.4208 43.8701 23.323 43.1292 25.0979C42.3882 26.8727 41.3018 28.4853 39.9319 29.8435C38.5621 31.2018 36.9357 32.279 35.1457 33.0136C33.3557 33.7483 31.4373 34.1259 29.5 34.125ZM29.5 9.75C28.6223 9.76216 27.7503 9.89164 26.9075 10.1349C27.6022 11.071 27.9356 12.2229 27.8471 13.3818C27.7587 14.5407 27.2544 15.6298 26.4255 16.4516C25.5967 17.2734 24.4983 17.7735 23.3295 17.8611C22.1607 17.9488 20.9989 17.6183 20.0549 16.9295C19.5173 18.8933 19.6143 20.9748 20.3323 22.881C21.0503 24.7873 22.3532 26.4223 24.0575 27.5559C25.7617 28.6895 27.7816 29.2647 29.8329 29.2004C31.8841 29.1362 33.8634 28.4358 35.4921 27.1977C37.1208 25.9597 38.3169 24.2464 38.9122 22.299C39.5074 20.3517 39.4718 18.2682 38.8102 16.342C38.1487 14.4157 36.8946 12.7437 35.2245 11.5612C33.5543 10.3787 31.5522 9.74521 29.5 9.75Z" fill="url(#paint0_angular_16_38)"/>
<defs>
<radialGradient id="paint0_angular_16_38" cx="0" cy="0" r="1" gradientUnits="userSpaceOnUse" gradientTransform="translate(29.5 19.5) rotate(90) scale(19.5 29.5)">
<stop offset="0.307292" stop-color="#676EFF"/>
<stop offset="0.973958" stop-color="#A2A5E1"/>
</radialGradient>
</defs>
</svg>
