<svg width="14" height="15" viewBox="0 0 14 15" fill="none" xmlns="http://www.w3.org/2000/svg">
<path d="M9.48792 2.89402C7.99939 2.89402 6.77003 1.87499 4.89856 1.87499C4.20536 1.87499 3.58442 2.00343 3.00842 2.22693C3.08824 2.00705 3.12222 1.77161 3.10803 1.53664C3.05881 0.703555 2.41128 0.0353217 1.6205 0.00139593C0.731805 -0.0367486 0 0.711787 0 1.64062C0 2.19802 0.263806 2.69018 0.666667 2.98666V14.2969C0.666667 14.6852 0.965139 15 1.33333 15H1.77778C2.14597 15 2.44444 14.6852 2.44444 14.2969V11.5312C3.23086 11.1778 4.21061 10.8831 5.62319 10.8831C7.11175 10.8831 8.34108 11.9022 10.2126 11.9022C11.5506 11.9022 12.62 11.4248 13.6155 10.7052C13.8567 10.5308 14 10.2413 14 9.93296V2.81088C14 2.12554 13.3259 1.67211 12.7365 1.9608C11.7827 2.42803 10.6128 2.89402 9.48792 2.89402V2.89402Z" fill="#8A8A8F"/>
</svg>
