<svg width="25" height="22" viewBox="0 0 25 22" fill="none" xmlns="http://www.w3.org/2000/svg">
<path d="M11.7124 1.66095L8.78312 6.57362L2.22917 7.36395C1.05385 7.50495 0.582829 8.70344 1.43516 9.38988L6.17679 13.2117L5.05531 18.6104C4.85344 19.5863 6.09604 20.3172 7.13678 19.8608L12.9999 17.3117V16.5454C12.9999 15.6818 12.9999 16.4063 13 15.25L12.9999 13.2117L12.9999 10.0682C12.9999 9.20454 12.9999 8.3409 12.9999 7.90908L12.9999 6.18183V1.66092C12.475 0.785244 12.2418 0.77415 11.7124 1.66095Z" fill="#FFFA86"/>
<path d="M23.7196 7.36877L16.8925 6.45365L13.8411 0.765294C13.2944 -0.248643 11.7103 -0.261532 11.1589 0.765294L8.10748 6.45365L1.28039 7.36877C0.0560969 7.53204 -0.434556 8.91975 0.453292 9.71458L5.39254 14.1398L4.22431 20.391C4.01403 21.5209 5.30842 22.3673 6.39253 21.8389L12.5 18.8873L18.6075 21.8389C19.6916 22.363 20.986 21.5209 20.7757 20.391L19.6075 14.1398L24.5467 9.71458C25.4346 8.91975 24.9439 7.53204 23.7196 7.36877V7.36877ZM17.2009 13.418L18.3084 19.3642L12.5 16.5587L6.6916 19.3642L7.79907 13.418L3.09815 9.20761L9.59346 8.33975L12.5 2.92635L15.4065 8.33975L21.9019 9.20761L17.2009 13.418V13.418Z" fill="#FFFA86"/>
</svg>
