<svg width="23" height="24" viewBox="0 0 23 24" fill="none" xmlns="http://www.w3.org/2000/svg">
<path d="M11.5026 5.8467C8.23921 5.8467 5.60697 8.594 5.60697 12C5.60697 15.406 8.23921 18.1533 11.5026 18.1533C14.7659 18.1533 17.3982 15.406 17.3982 12C17.3982 8.594 14.7659 5.8467 11.5026 5.8467ZM11.5026 16.0004C9.3937 16.0004 7.66966 14.2064 7.66966 12C7.66966 9.7936 9.38857 7.99955 11.5026 7.99955C13.6166 7.99955 15.3355 9.7936 15.3355 12C15.3355 14.2064 13.6114 16.0004 11.5026 16.0004ZM19.0144 5.595C19.0144 6.39295 18.3987 7.03024 17.6393 7.03024C16.8748 7.03024 16.2642 6.38759 16.2642 5.595C16.2642 4.80241 16.8799 4.15977 17.6393 4.15977C18.3987 4.15977 19.0144 4.80241 19.0144 5.595ZM22.9192 7.05166C22.832 5.12909 22.4112 3.42608 21.0617 2.02298C19.7174 0.619882 18.0857 0.180743 16.2437 0.0843468C14.3452 -0.0281156 8.65482 -0.0281156 6.75633 0.0843468C4.91941 0.175388 3.28773 0.614526 1.93826 2.01763C0.58879 3.42073 0.173173 5.12373 0.0808143 7.0463C-0.0269381 9.02778 -0.0269381 14.9669 0.0808143 16.9483C0.168042 18.8709 0.58879 20.5739 1.93826 21.977C3.28773 23.3801 4.91428 23.8193 6.75633 23.9157C8.65482 24.0281 14.3452 24.0281 16.2437 23.9157C18.0857 23.8246 19.7174 23.3855 21.0617 21.977C22.4061 20.5739 22.8268 18.8709 22.9192 16.9483C23.0269 14.9669 23.0269 9.03314 22.9192 7.05166ZM20.4665 19.0744C20.0663 20.1241 19.2915 20.9327 18.2807 21.3558C16.767 21.9824 13.1753 21.8378 11.5026 21.8378C9.82984 21.8378 6.23296 21.977 4.72443 21.3558C3.71874 20.9381 2.94395 20.1294 2.53859 19.0744C1.93826 17.4946 2.0768 13.7458 2.0768 12C2.0768 10.2542 1.94339 6.50006 2.53859 4.92558C2.93882 3.87593 3.71361 3.06728 4.72443 2.6442C6.23809 2.01763 9.82984 2.16222 11.5026 2.16222C13.1753 2.16222 16.7722 2.02298 18.2807 2.6442C19.2864 3.06192 20.0612 3.87058 20.4665 4.92558C21.0669 6.50541 20.9283 10.2542 20.9283 12C20.9283 13.7458 21.0669 17.4999 20.4665 19.0744Z" fill="#EEEEEE"/>
</svg>
