<svg width="68" height="99" viewBox="0 0 68 99" fill="none" xmlns="http://www.w3.org/2000/svg">
<path d="M30.1321 0.2247C22.2092 1.35356 14.4734 7.18601 10.9799 14.649C9.1083 18.5373 9.04591 19.1645 8.73399 28.7598L8.42206 38.7314L6.11381 39.2958C4.67895 39.6094 3.05693 40.6755 1.87161 41.9925L5.55892e-05 44.1875V68.6462C5.55892e-05 95.7388 -0.0623292 95.3626 3.99271 97.8084C5.80188 98.9373 7.61105 99 34 99C60.3889 99 62.1981 98.9373 64.0073 97.8084C68.0623 95.3626 67.9999 95.7388 67.9999 68.5835V43.9994L65.5669 41.5535C64.0073 39.9857 62.5724 39.1077 61.5119 39.1077H59.8899V32.9617C59.8275 21.1713 58.1431 14.7117 53.6513 9.00473C48.6605 2.67056 38.866 -0.966875 30.1321 0.2247ZM40.8 9.3183C44.2936 10.7607 48.3486 14.8999 49.9706 18.6C51.2807 21.4849 51.4679 22.8019 51.4679 30.3276V38.7941H34H16.5321V30.6412C16.5321 24.1189 16.7817 21.8612 17.7175 19.4153C19.7138 14.0846 24.6422 9.82002 30.2569 8.31487C32.7523 7.62501 37.9927 8.12672 40.8 9.3183ZM60.3889 69.0225L60.2018 90.8471L34.1872 91.0353L8.11013 91.1607V69.2106V47.2606H34.3119H60.5137L60.3889 69.0225Z" fill="url(#paint0_angular_129_2)"/>
<path d="M31.5672 56.6677C25.7653 58.4864 23.769 66.0122 28.0736 70.1513C29.6956 71.7192 29.9451 72.409 29.9451 75.4193C29.9451 79.3076 30.2571 79.9975 32.2534 81.0636C35.8093 82.9451 38.0552 80.8128 38.0552 75.482C38.0552 72.4717 38.3048 71.6565 39.2405 71.1547C40.7378 70.3395 42.4222 66.702 42.4222 64.3816C42.4222 62.2493 40.4882 58.9254 38.5543 57.7338C36.558 56.4168 33.7506 56.0406 31.5672 56.6677Z" fill="url(#paint1_angular_129_2)"/>
<defs>
<radialGradient id="paint0_angular_129_2" cx="0" cy="0" r="1" gradientUnits="userSpaceOnUse" gradientTransform="translate(34 49.5) rotate(-90) scale(49.5 34)">
<stop offset="0.3125" stop-color="#676EFF"/>
<stop offset="1" stop-color="#A2A5E1"/>
</radialGradient>
<radialGradient id="paint1_angular_129_2" cx="0" cy="0" r="1" gradientUnits="userSpaceOnUse" gradientTransform="translate(34.0895 69.0539) rotate(-90) scale(12.6821 8.33267)">
<stop offset="0.3125" stop-color="#676EFF"/>
<stop offset="1" stop-color="#A2A5E1"/>
</radialGradient>
</defs>
</svg>
