<svg width="15" height="10" viewBox="0 0 15 10" fill="none" xmlns="http://www.w3.org/2000/svg">
<path d="M14.5582 0.501339C13.6491 0.13817 12.7393 2.68473e-08 11.8299 2.68473e-08C8.94314 -0.000223187 6.05662 1.39152 3.16987 1.39152C2.4459 1.39152 1.72239 1.30402 0.998422 1.08527C0.917095 1.06071 0.835534 1.04911 0.755848 1.04911C0.352494 1.04911 0 1.34643 0 1.75915V8.84085C0 9.12277 0.16945 9.38996 0.441556 9.49844C1.35068 9.86183 2.26051 10 3.16987 10C6.05662 10 8.94338 8.60826 11.8301 8.60826C12.5541 8.60826 13.2776 8.69576 14.0016 8.91451C14.0829 8.93906 14.1645 8.95067 14.2442 8.95067C14.6475 8.95067 15 8.65335 15 8.24063V1.15915C14.9998 0.877009 14.8303 0.610045 14.5582 0.501339ZM7.49988 7.14286C6.4642 7.14286 5.62491 6.18326 5.62491 5C5.62491 3.81652 6.46443 2.85714 7.49988 2.85714C8.53534 2.85714 9.37485 3.81652 9.37485 5C9.37485 6.18371 8.5351 7.14286 7.49988 7.14286Z" fill="#78FF9E"/>
</svg>
