<svg width="504" height="385" viewBox="0 0 504 385" fill="none" xmlns="http://www.w3.org/2000/svg">
<path d="M497 209.021L329 377.021C314 392.021 288 381.521 288 360.021V264.021H152C138.7 264.021 128 253.321 128 240.021V144.021C128 130.721 138.7 120.021 152 120.021H288V24.0213C288 2.62127 313.9 -7.97873 329 7.02127L497 175.021C506.3 184.421 506.3 199.621 497 209.021ZM192 372.021V332.021C192 325.421 186.6 320.021 180 320.021H96C78.3 320.021 64 305.721 64 288.021V96.0213C64 78.3213 78.3 64.0213 96 64.0213H180C186.6 64.0213 192 58.6213 192 52.0213V12.0213C192 5.42127 186.6 0.0212686 180 0.0212686H96C43 0.0212686 0 43.0213 0 96.0213V288.021C0 341.021 43 384.021 96 384.021H180C186.6 384.021 192 378.621 192 372.021Z" fill="#FF7575"/>
</svg>
