<svg width="17" height="16" viewBox="0 0 17 16" fill="none" xmlns="http://www.w3.org/2000/svg">
<path d="M16.1293 5.35911L11.4869 4.69357L9.41196 0.556577C9.04019 -0.180831 7.96299 -0.190205 7.58804 0.556577L5.51309 4.69357L0.870668 5.35911C0.0381459 5.47784 -0.295498 6.48709 0.308239 7.06515L3.66692 10.2835L2.87253 14.8298C2.72954 15.6516 3.60973 16.2671 4.34692 15.8828L8.5 13.7362L12.6531 15.8828C13.3903 16.264 14.2705 15.6516 14.1275 14.8298L13.3331 10.2835L16.6918 7.06515C17.2955 6.48709 16.9619 5.47784 16.1293 5.35911ZM11.6966 9.75856L12.4497 14.083L8.5 12.0427L4.55029 14.083L5.30337 9.75856L2.10674 6.69644L6.52356 6.06527L8.5 2.12826L10.4764 6.06527L14.8933 6.69644L11.6966 9.75856Z" fill="#FFFA86"/>
</svg>
