<svg width="88" height="128" viewBox="0 0 88 128" fill="none" xmlns="http://www.w3.org/2000/svg">
<path d="M38.9945 0.289597C28.7413 1.74281 18.7303 9.25105 14.2092 18.8584C11.7872 23.8639 11.7065 24.6712 11.3028 37.0235L10.8991 49.8602L7.91198 50.5868C6.05511 50.9904 3.95603 52.3629 2.42209 54.0583L7.19392e-05 56.884V88.3702C7.19392e-05 123.247 -0.0806617 122.763 5.16704 125.911C7.50832 127.365 9.8496 127.445 44 127.445C78.1504 127.445 80.4917 127.365 82.833 125.911C88.0807 122.763 87.9999 123.247 87.9999 88.3702V56.8033L85.255 53.7354L82.51 50.7482L51.9119 50.3446L21.3945 49.9409V39.4455C21.3945 27.3354 22.5248 23.1373 27.2881 17.8896C31.8092 12.8841 37.2184 10.4621 44 10.5428C47.4715 10.5428 50.8624 11.1079 52.7192 11.9153C56.7559 13.6914 61.9229 18.4547 63.8605 22.2492C65.3945 25.3171 65.3945 25.3171 67.0091 23.7024C68.0587 22.6529 69.6733 22.0877 71.8532 22.0877C73.6293 22.0877 75.0825 21.9263 75.0825 21.6841C75.0825 20.6345 71.4495 14.1758 69.2697 11.4309C63.0532 3.43822 50.2165 -1.24434 38.9945 0.289597ZM78.1504 88.8546L77.9082 116.95L44.2422 117.192L10.4955 117.354V89.0968V60.84H44.4037H78.3119L78.1504 88.8546Z" fill="url(#paint0_angular_119_23)"/>
<path d="M40.8513 72.95C33.343 75.2913 30.7595 84.9794 36.3302 90.3078C38.4292 92.3261 38.7522 93.2142 38.7522 97.0894C38.7522 102.095 39.1558 102.983 41.7393 104.355C46.3412 106.777 49.2476 104.033 49.2476 97.1702C49.2476 93.2949 49.5705 92.2454 50.7815 91.5995C52.7191 90.55 54.8989 85.8674 54.8989 82.8803C54.8989 80.1353 52.3962 75.8564 49.8934 74.3225C47.31 72.6271 43.6769 72.1427 40.8513 72.95Z" fill="url(#paint1_angular_119_23)"/>
<defs>
<radialGradient id="paint0_angular_119_23" cx="0" cy="0" r="1" gradientUnits="userSpaceOnUse" gradientTransform="translate(44 63.7227) rotate(-90) scale(63.7227 44)">
<stop offset="0.317708" stop-color="#676EFF"/>
<stop offset="1" stop-color="#A2A5E1"/>
</radialGradient>
<radialGradient id="paint1_angular_119_23" cx="0" cy="0" r="1" gradientUnits="userSpaceOnUse" gradientTransform="translate(44.1155 88.895) rotate(-90) scale(16.326 10.7835)">
<stop offset="0.317708" stop-color="#676EFF"/>
<stop offset="1" stop-color="#A2A5E1"/>
</radialGradient>
</defs>
</svg>
