<svg width="15" height="15" viewBox="0 0 15 15" fill="none" xmlns="http://www.w3.org/2000/svg">
<path d="M7.5 2.90323C5.89718 2.90323 4.59677 4.20363 4.59677 5.80645C4.59677 7.40927 5.89718 8.70968 7.5 8.70968C9.10282 8.70968 10.4032 7.40927 10.4032 5.80645C10.4032 4.20363 9.10282 2.90323 7.5 2.90323ZM7.5 7.25806C6.69859 7.25806 6.04839 6.60786 6.04839 5.80645C6.04839 5.00504 6.69859 4.35484 7.5 4.35484C8.30141 4.35484 8.95161 5.00504 8.95161 5.80645C8.95161 6.60786 8.30141 7.25806 7.5 7.25806ZM7.5 0C3.35685 0 0 3.35685 0 7.5C0 11.6431 3.35685 15 7.5 15C11.6431 15 15 11.6431 15 7.5C15 3.35685 11.6431 0 7.5 0ZM7.5 13.5484C5.99698 13.5484 4.62399 12.995 3.56552 12.0847C4.01613 11.3891 4.7873 10.9173 5.67036 10.8901C6.29939 11.0837 6.89819 11.1804 7.5 11.1804C8.10181 11.1804 8.7006 11.0867 9.32964 10.8901C10.2127 10.9204 10.9839 11.3891 11.4345 12.0847C10.376 12.995 9.00302 13.5484 7.5 13.5484V13.5484ZM12.4204 11.005C11.6825 10.0554 10.5423 9.43548 9.24194 9.43548C8.93347 9.43548 8.45564 9.72581 7.5 9.72581C6.54738 9.72581 6.06653 9.43548 5.75806 9.43548C4.46069 9.43548 3.32056 10.0554 2.57964 11.005C1.87198 10.0161 1.45161 8.80645 1.45161 7.5C1.45161 4.16431 4.16431 1.45161 7.5 1.45161C10.8357 1.45161 13.5484 4.16431 13.5484 7.5C13.5484 8.80645 13.128 10.0161 12.4204 11.005Z" fill="#8A8A8F"/>
</svg>
