<svg width="65" height="38" viewBox="0 0 65 38" fill="none" xmlns="http://www.w3.org/2000/svg">
<path d="M61.75 0H3.25C1.45539 0 0 1.41807 0 3.16667V34.8333C0 36.5819 1.45539 38 3.25 38H19.5223C22.0807 38 24.4004 36.5384 25.4495 34.2653L28.2669 28.1655C29.0682 26.4298 30.7074 25.3333 32.5 25.3333C34.2926 25.3333 35.9318 26.4298 36.7331 28.1655L39.5505 34.2653C40.5996 36.5384 42.9203 38 45.4777 38H61.75C63.5446 38 65 36.5819 65 34.8333V3.16667C65 1.41807 63.5446 0 61.75 0ZM16.25 23.75C12.6598 23.75 9.75 20.9148 9.75 17.4167C9.75 13.9185 12.6598 11.0833 16.25 11.0833C19.8402 11.0833 22.75 13.9185 22.75 17.4167C22.75 20.9148 19.8402 23.75 16.25 23.75ZM48.75 23.75C45.1598 23.75 42.25 20.9148 42.25 17.4167C42.25 13.9185 45.1598 11.0833 48.75 11.0833C52.3402 11.0833 55.25 13.9185 55.25 17.4167C55.25 20.9148 52.3402 23.75 48.75 23.75Z" fill="url(#paint0_angular_16_39)"/>
<defs>
<radialGradient id="paint0_angular_16_39" cx="0" cy="0" r="1" gradientUnits="userSpaceOnUse" gradientTransform="translate(32.5 19) rotate(90) scale(19 32.5)">
<stop offset="0.307292" stop-color="#676EFF"/>
<stop offset="0.973958" stop-color="#A2A5E1"/>
</radialGradient>
</defs>
</svg>
