<svg width="29" height="21" viewBox="0 0 29 21" fill="none" xmlns="http://www.w3.org/2000/svg">
<path d="M28.394 3.28579C28.0605 1.99243 27.0778 0.97382 25.8301 0.628141C23.5686 0 14.5 0 14.5 0C14.5 0 5.43149 0 3.16989 0.628141C1.92219 0.973875 0.939507 1.99243 0.605983 3.28579C0 5.63008 0 10.5212 0 10.5212C0 10.5212 0 15.4124 0.605983 17.7566C0.939507 19.05 1.92219 20.0262 3.16989 20.3719C5.43149 21 14.5 21 14.5 21C14.5 21 23.5685 21 25.8301 20.3719C27.0778 20.0262 28.0605 19.05 28.394 17.7566C29 15.4124 29 10.5212 29 10.5212C29 10.5212 29 5.63008 28.394 3.28579ZM11.5341 14.962V6.08043L19.1136 10.5213L11.5341 14.962Z" fill="#EEEEEE"/>
</svg>
